HIERARCHY
ROOT joint_Root
{
	OFFSET 0.0 0.0 0.0
	CHANNELS 6 Xposition Yposition Zposition Zrotation Xrotation Yrotation 
	JOINT Hips
	{
		OFFSET 4.5925 91.4895 -427.239
		CHANNELS 6 Xposition Yposition Zposition Zrotation Xrotation Yrotation 
		JOINT Spine
		{
			OFFSET 15.7357 0.0 0.0
			CHANNELS 6 Xposition Yposition Zposition Zrotation Xrotation Yrotation 
			JOINT Chest
			{
				OFFSET 8.98455 -0.406207 0.0
				CHANNELS 6 Xposition Yposition Zposition Zrotation Xrotation Yrotation 
				JOINT Neck
				{
					OFFSET 16.3773 0.0 0.0
					CHANNELS 6 Xposition Yposition Zposition Zrotation Xrotation Yrotation 
					JOINT Head
					{
						OFFSET 6.45672 0.0 0.0
						CHANNELS 6 Xposition Yposition Zposition Zrotation Xrotation Yrotation 
						End Site
						{
							OFFSET 0.0 0.0 0.0
						}
					}
				}
				JOINT Shoulder_L
				{
					OFFSET 12.9942 -0.242716 4.98039
					CHANNELS 6 Xposition Yposition Zposition Zrotation Xrotation Yrotation 
					JOINT UpperArm_L
					{
						OFFSET 5.34809 0.0 0.0
						CHANNELS 6 Xposition Yposition Zposition Zrotation Xrotation Yrotation 
						JOINT LowerArm_L
						{
							OFFSET 24.3286 1.87007e-05 0.0
							CHANNELS 6 Xposition Yposition Zposition Zrotation Xrotation Yrotation 
							JOINT Hand_L
							{
								OFFSET 22.2916 0.0 0.0
								CHANNELS 6 Xposition Yposition Zposition Zrotation Xrotation Yrotation 
								End Site
								{
									OFFSET 0.0 0.0 0.0
								}
							}
						}
					}
				}
				JOINT Shoulder_R
				{
					OFFSET 12.9945 -0.242716 -4.98039
					CHANNELS 6 Xposition Yposition Zposition Zrotation Xrotation Yrotation 
					JOINT UpperArm_R
					{
						OFFSET -5.34813 0.0 0.0
						CHANNELS 6 Xposition Yposition Zposition Zrotation Xrotation Yrotation 
						JOINT LowerArm_R
						{
							OFFSET -24.3289 0.000322201 0.0
							CHANNELS 6 Xposition Yposition Zposition Zrotation Xrotation Yrotation 
							JOINT Hand_R
							{
								OFFSET -22.2915 -0.000108084 0.0
								CHANNELS 6 Xposition Yposition Zposition Zrotation Xrotation Yrotation 
								End Site
								{
									OFFSET 0.0 0.0 0.0
								}
							}
						}
					}
				}
			}
		}
		JOINT UpperLeg_L
		{
			OFFSET -2.19248 -6.46944 0.0
			CHANNELS 6 Xposition Yposition Zposition Zrotation Xrotation Yrotation 
			JOINT LowerLeg_L
			{
				OFFSET 39.0811 0.0 -1.23785e-05
				CHANNELS 6 Xposition Yposition Zposition Zrotation Xrotation Yrotation 
				JOINT Foot_L
				{
					OFFSET 40.9854 0.0 -1.26872e-05
					CHANNELS 6 Xposition Yposition Zposition Zrotation Xrotation Yrotation 
					JOINT Toes_L
					{
						OFFSET 11.7543 0.0 0.0
						CHANNELS 6 Xposition Yposition Zposition Zrotation Xrotation Yrotation 
						End Site
						{
							OFFSET 0.0 0.0 0.0
						}
					}
				}
			}
		}
		JOINT UpperLeg_R
		{
			OFFSET -2.19251 6.46944 0.0
			CHANNELS 6 Xposition Yposition Zposition Zrotation Xrotation Yrotation 
			JOINT LowerLeg_R
			{
				OFFSET -39.0811 -0.00228153 -0.0401928
				CHANNELS 6 Xposition Yposition Zposition Zrotation Xrotation Yrotation 
				JOINT Foot_R
				{
					OFFSET -40.9854 0.0 0.0
					CHANNELS 6 Xposition Yposition Zposition Zrotation Xrotation Yrotation 
					JOINT Toes_R
					{
						OFFSET -11.7543 0.0 0.0
						CHANNELS 6 Xposition Yposition Zposition Zrotation Xrotation Yrotation 
						End Site
						{
							OFFSET 0.0 0.0 0.0
						}
					}
				}
			}
		}
	}
}
MOTION
Frames:	4
Frame Time:	0.0333333
0.000000 0.000000 0.000000 0.000000 0.000000 -0.000000 1.382920 89.114500 500.077000 -88.095600 -7.814830 178.194000 15.735700 0.000005 -0.000001 66.771800 84.986900 -66.496900 8.984550 -0.406207 -0.000000 1.460970 -3.967420 0.600120 16.377300 -0.000001 -0.000001 -1.807280 -7.141220 -0.188012 6.456720 -0.000001 -0.000000 -7.840090 -7.125690 -2.351360 12.994200 -0.242716 4.980390 -90.898500 3.442160 -75.361700 5.348090 -0.000007 -0.000001 -51.113100 23.851700 -38.839300 24.328600 0.000019 0.000005 8.730100 12.528600 -35.292600 22.291600 -0.000001 0.000005 14.727700 5.247340 1.499410 12.994500 -0.242716 -4.980390 88.312400 8.340960 -78.519400 -5.348130 -0.000001 -0.000004 -63.631400 22.363700 -0.053435 -24.328900 0.000322 -0.000009 0.401249 1.995620 -11.417400 -22.291500 -0.000108 -0.000004 14.401700 5.315340 -0.362208 -2.192480 -6.469440 -0.000000 -175.231000 -3.276490 2.917480 39.081100 -0.000007 -0.000012 -0.001359 0.002407 29.460300 40.985400 -0.000006 -0.000013 3.749810 5.603470 -73.545900 11.754300 -0.000000 0.000003 -0.020853 -0.171980 -23.605000 -2.192510 6.469440 -0.000001 -174.274000 15.115800 150.164000 -39.081100 -0.002282 -0.040193 0.020861 -0.021754 38.941800 -40.985400 0.000008 0.000006 1.215330 0.719319 -64.048300 -11.754300 -0.000006 -0.000006 -0.023420 -0.185542 -24.160700
0.000000 0.000000 0.000000 0.000000 0.000000 -0.000000 1.567150 88.368800 496.801000 -87.936000 -9.515540 178.098000 15.735700 0.000005 -0.000001 65.736100 84.985000 -65.281500 8.984550 -0.406207 -0.000000 1.398690 -4.144990 0.959213 16.377300 -0.000001 -0.000001 -1.680430 -6.894830 -0.113980 6.456720 -0.000001 -0.000000 -8.163680 -6.529910 -2.047650 12.994200 -0.242716 4.980390 -90.877000 3.353410 -75.335600 5.348090 -0.000007 -0.000001 -49.372600 23.653200 -42.562300 24.328600 0.000019 0.000005 10.398400 12.929000 -39.355200 22.291600 -0.000001 0.000005 16.395100 5.239720 1.702420 12.994500 -0.242716 -4.980390 88.238500 8.733100 -78.549400 -5.348130 -0.000001 -0.000004 -63.409900 20.755900 1.765730 -24.328900 0.000322 -0.000009 0.510640 3.208370 -9.072800 -22.291500 -0.000108 -0.000004 14.567000 5.284020 0.515378 -2.192480 -6.469440 -0.000000 -173.998000 -2.648390 4.069960 39.081100 -0.000007 -0.000012 -0.006706 0.011277 30.741500 40.985400 -0.000006 -0.000013 3.443390 7.109600 -73.876000 11.754300 -0.000000 0.000003 -0.036462 -0.245701 -26.660300 -2.192510 6.469440 -0.000001 -173.260000 13.445400 147.940000 -39.081100 -0.002282 -0.040193 0.042718 -0.049467 38.562100 -40.985400 0.000008 0.000006 7.041720 -0.646584 -60.665700 -11.754300 -0.000006 -0.000006 -0.016095 -0.144608 -22.474900
0.000000 0.000000 0.000000 0.000000 0.000000 -0.000000 1.547280 87.292900 492.492000 -88.721300 -11.586400 178.783000 15.735700 0.000005 -0.000001 63.278600 84.798200 -62.930700 8.984550 -0.406207 -0.000000 1.546480 -4.694430 0.758868 16.377300 -0.000001 -0.000001 -1.334870 -6.602720 -0.243600 6.456720 -0.000001 -0.000000 -7.836470 -6.113430 -1.786870 12.994200 -0.242716 4.980390 -90.801500 3.012030 -75.091700 5.348090 -0.000007 -0.000001 -48.173600 24.183300 -44.763000 24.328600 0.000019 0.000005 11.726700 12.648300 -43.469800 22.291600 -0.000001 0.000005 17.470400 5.231960 1.906900 12.994500 -0.242716 -4.980390 88.157000 8.976770 -78.347900 -5.348130 -0.000001 -0.000004 -63.621300 19.201400 3.477310 -24.328900 0.000322 -0.000009 0.506703 4.205750 -6.891470 -22.291500 -0.000108 -0.000004 14.937100 5.261040 1.138720 -2.192480 -6.469440 -0.000000 -173.618000 -1.404660 5.946020 39.081100 -0.000007 -0.000012 -0.011201 0.017026 33.341700 40.985400 -0.000006 -0.000013 2.903240 8.611250 -73.175200 11.754300 -0.000000 0.000003 -0.073275 -0.372707 -32.023100 -2.192510 6.469440 -0.000001 -175.046000 10.566200 148.541000 -39.081100 -0.002282 -0.040193 0.082652 -0.077798 45.580000 -40.985400 0.000008 0.000006 8.091880 -3.416100 -65.861200 -11.754300 -0.000006 -0.000006 -0.009738 -0.101668 -20.715100
0.000000 0.000000 0.000000 0.000000 0.000000 -0.000000 1.627890 86.500700 487.876000 -88.538400 -14.024600 179.796000 15.735700 0.000005 -0.000001 60.371400 84.626000 -59.744500 8.984550 -0.406207 -0.000000 1.613610 -5.344290 1.328760 16.377300 -0.000001 -0.000001 -0.886959 -6.639540 -0.421265 6.456720 -0.000001 -0.000000 -7.365060 -5.688550 -1.878580 12.994200 -0.242716 4.980390 -90.913200 3.393570 -74.928600 5.348090 -0.000007 -0.000001 -47.081900 25.315600 -45.045400 24.328600 0.000019 0.000005 12.933900 12.149700 -47.494900 22.291600 -0.000001 0.000005 17.822800 5.252820 1.358400 12.994500 -0.242716 -4.980390 87.853700 9.786060 -77.566300 -5.348130 -0.000001 -0.000004 -63.213800 18.605100 4.688110 -24.328900 0.000322 -0.000009 0.385622 4.312220 -5.128520 -22.291500 -0.000108 -0.000004 14.909600 5.247200 1.507580 -2.192480 -6.469440 -0.000000 -171.780000 -0.909121 5.778180 39.081100 -0.000007 -0.000012 0.002331 -0.002873 39.035800 40.985400 -0.000006 -0.000013 3.140890 10.463500 -69.224000 11.754300 -0.000000 0.000003 -0.161206 -0.576410 -41.027600 -2.192510 6.469440 -0.000001 -174.874000 11.226100 151.165000 -39.081100 -0.002282 -0.040193 0.129664 -0.108756 49.294200 -40.985400 0.000008 0.000006 8.161690 -5.996530 -71.644500 -11.754300 -0.000006 -0.000006 -0.002959 -0.040140 -18.205500
